<svg width="221" height="38" viewBox="0 0 221 38" fill="none" xmlns="http://www.w3.org/2000/svg">
<path d="M9.384 3.736C14.6 3.736 18.776 4.92 21.912 7.288C25.08 9.624 26.664 13.928 26.664 20.2C26.664 26.376 25.128 30.728 22.056 33.256C18.984 35.752 15 37 10.104 37H0.119995V3.736H9.384ZM7.992 9.448V31.288H10.584C13.176 31.288 15.144 30.488 16.488 28.888C17.832 27.256 18.504 24.36 18.504 20.2C18.504 17.352 18.168 15.144 17.496 13.576C16.824 12.008 15.912 10.936 14.76 10.36C13.608 9.752 12.184 9.448 10.488 9.448H7.992Z" fill="#141414"/>
<path d="M53.4656 23.752C53.4656 24.808 53.4176 25.72 53.3216 26.488H37.5296C37.7856 28.632 38.3936 30.136 39.3536 31C40.3136 31.864 41.6416 32.296 43.3376 32.296C44.3616 32.296 45.3536 32.12 46.3136 31.768C47.2736 31.384 48.3136 30.808 49.4336 30.04L52.5536 34.264C49.5776 36.632 46.2656 37.816 42.6176 37.816C38.4896 37.816 35.3216 36.6 33.1136 34.168C30.9056 31.736 29.8016 28.472 29.8016 24.376C29.8016 21.784 30.2656 19.464 31.1936 17.416C32.1216 15.336 33.4816 13.704 35.2736 12.52C37.0656 11.304 39.2096 10.696 41.7056 10.696C45.3856 10.696 48.2656 11.848 50.3456 14.152C52.4256 16.456 53.4656 19.656 53.4656 23.752ZM46.0256 21.592C45.9616 17.688 44.5856 15.736 41.8976 15.736C40.5856 15.736 39.5616 16.216 38.8256 17.176C38.1216 18.136 37.6896 19.72 37.5296 21.928H46.0256V21.592Z" fill="#141414"/>
<path d="M79.287 11.512L71.271 37H62.295L54.087 11.512H62.343L66.855 31.24L71.559 11.512H79.287Z" fill="#141414"/>
<path d="M116.247 3.736L115.479 9.784H107.271V37H99.399V9.784H90.807V3.736H116.247Z" fill="#141414"/>
<path d="M134.201 10.696C136.409 10.696 138.137 11.368 139.385 12.712C140.633 14.056 141.257 15.944 141.257 18.376V37H133.673V19.672C133.673 18.392 133.465 17.512 133.049 17.032C132.633 16.52 132.041 16.264 131.273 16.264C129.737 16.264 128.265 17.352 126.857 19.528V37H119.273V1.384L126.857 0.615997V14.248C127.913 13.064 129.033 12.184 130.217 11.608C131.401 11 132.729 10.696 134.201 10.696Z" fill="#141414"/>
<path d="M169.2 23.752C169.2 24.808 169.152 25.72 169.056 26.488H153.264C153.52 28.632 154.128 30.136 155.088 31C156.048 31.864 157.376 32.296 159.072 32.296C160.096 32.296 161.088 32.12 162.048 31.768C163.008 31.384 164.048 30.808 165.168 30.04L168.288 34.264C165.312 36.632 162 37.816 158.352 37.816C154.224 37.816 151.056 36.6 148.848 34.168C146.64 31.736 145.536 28.472 145.536 24.376C145.536 21.784 146 19.464 146.928 17.416C147.856 15.336 149.216 13.704 151.008 12.52C152.8 11.304 154.944 10.696 157.44 10.696C161.12 10.696 164 11.848 166.08 14.152C168.16 16.456 169.2 19.656 169.2 23.752ZM161.76 21.592C161.696 17.688 160.32 15.736 157.632 15.736C156.32 15.736 155.296 16.216 154.56 17.176C153.856 18.136 153.424 19.72 153.264 21.928H161.76V21.592Z" fill="#141414"/>
<path d="M194.964 37H188.388L188.052 33.784C186.196 36.472 183.62 37.816 180.324 37.816C177.988 37.816 176.212 37.112 174.996 35.704C173.812 34.296 173.22 32.328 173.22 29.8V11.512H180.804V28.84C180.804 30.088 180.996 30.968 181.38 31.48C181.796 31.96 182.42 32.2 183.252 32.2C184.852 32.2 186.228 31.208 187.38 29.224V11.512H194.964V37Z" fill="#141414"/>
<path d="M209.905 10.696C211.729 10.696 213.441 10.968 215.041 11.512C216.641 12.056 218.049 12.824 219.265 13.816L216.481 18.088C214.401 16.776 212.305 16.12 210.193 16.12C209.201 16.12 208.433 16.296 207.889 16.648C207.377 16.968 207.121 17.432 207.121 18.04C207.121 18.52 207.233 18.92 207.457 19.24C207.713 19.528 208.209 19.832 208.945 20.152C209.681 20.472 210.817 20.856 212.353 21.304C215.009 22.072 216.977 23.08 218.257 24.328C219.569 25.544 220.225 27.24 220.225 29.416C220.225 31.144 219.729 32.648 218.737 33.928C217.745 35.176 216.385 36.136 214.657 36.808C212.929 37.48 211.009 37.816 208.897 37.816C206.753 37.816 204.753 37.48 202.897 36.808C201.073 36.136 199.521 35.208 198.241 34.024L201.937 29.896C204.081 31.56 206.337 32.392 208.705 32.392C209.857 32.392 210.753 32.184 211.393 31.768C212.065 31.352 212.401 30.76 212.401 29.992C212.401 29.384 212.273 28.904 212.017 28.552C211.761 28.2 211.265 27.88 210.529 27.592C209.793 27.272 208.625 26.888 207.025 26.44C204.497 25.704 202.609 24.68 201.361 23.368C200.113 22.056 199.489 20.424 199.489 18.472C199.489 17 199.905 15.688 200.737 14.536C201.601 13.352 202.817 12.424 204.385 11.752C205.985 11.048 207.825 10.696 209.905 10.696Z" fill="#141414"/>
</svg>
